<svg width="60" height="60" xmlns="http://www.w3.org/2000/svg">
 <g>
  <title>background</title>
  <rect x="-1" y="-1" width="62" height="62" id="canvas_background" fill="none"/>
 </g>

 <g>
  <title>Layer 1</title>
  <g stroke="null" id="svg_31">
   <circle stroke="null" cx="103.002773" cy="-99.164394" r="26" fill="#e0e1e2" id="svg_21" transform="matrix(1.04220673272833,0,0,1.04220673272833,-77.36162063509558,133.98229273370902) "/>
   <circle stroke="null" cx="103.002773" cy="-99.164394" r="15" fill="#fff" id="svg_22" transform="matrix(1.04220673272833,0,0,1.04220673272833,-77.36162063509558,133.98229273370902) "/>
   <path stroke="null" fill="#424a60" d="m13.31326,59.814282a1.041162,1.041162 0 0 1 -0.736841,-1.779051l4.098996,-4.098996a1.041162,1.041162 0 1 1 1.473682,1.473682l-4.099007,4.098996a1.039076,1.039076 0 0 1 -0.736831,0.305369zm33.350615,0a1.039076,1.039076 0 0 1 -0.736841,-0.305369l-4.13027,-4.13026a1.041162,1.041162 0 1 1 1.473682,-1.473682l4.13027,4.13026a1.041162,1.041162 0 0 1 -0.736841,1.779051z" id="svg_23"/>
   <path stroke="null" fill="#c7cac7" d="m48.846248,12.095803a1.041162,1.041162 0 0 1 -0.736841,-1.779041l3.12662,-3.12662a1.041162,1.041162 0 1 1 1.473682,1.473672l-3.12662,3.12662a1.038038,1.038038 0 0 1 -0.736841,0.305369zm-37.714334,0a1.039076,1.039076 0 0 1 -0.736841,-0.305369l-3.12662,-3.12662a1.041162,1.041162 0 1 1 1.473682,-1.473672l3.12662,3.12662a1.041162,1.041162 0 0 1 -0.736841,1.779041z" id="svg_24"/>
   <path stroke="null" fill="#26b99a" d="m29.988562,59.814282c-16.090627,0 -29.181784,-13.091157 -29.181784,-29.181784s13.091157,-29.181794 29.181784,-29.181794s29.181794,13.091157 29.181794,29.181794s-13.090119,29.181784 -29.181794,29.181784zm0,-54.194748c-13.792562,0 -25.012964,11.22144 -25.012964,25.012964s11.220402,25.012953 25.012964,25.012953s25.012964,-11.22144 25.012964,-25.012953s-11.220402,-25.012964 -25.012964,-25.012964z" id="svg_25"/>
   <g stroke="null" fill="#26b99a" id="svg_26" transform="matrix(1.04220673272833,0,0,1.04220673272833,-77.36162063509558,133.98229273370902) ">
    <path stroke="null" d="m103.002773,-122.28539a1,1 0 0 0 -1,1l0,1a1,1 0 1 0 2,0l0,-1a1,1 0 0 0 -1,-1zm0,43a1,1 0 0 0 -1,1l0,1a1,1 0 1 0 2,0l0,-1a1,1 0 0 0 -1,-1zm22,-21l-1,0a1,1 0 1 0 0,2l1,0a1,1 0 1 0 0,-2zm-43,0l-1,0a1,1 0 1 0 0,2l1,0a1,1 0 1 0 0,-2zm35.849,-15.264l-0.707,0.707a0.999,0.999 0 1 0 1.414,1.414l0.707,-0.707a0.999,0.999 0 1 0 -1.414,-1.414zm-30.405,30.406l-0.707,0.707a0.999,0.999 0 1 0 1.414,1.414l0.707,-0.707a0.999,0.999 0 1 0 -1.414,-1.414zm31.112,0a0.999,0.999 0 1 0 -1.414,1.414l0.707,0.707a0.997,0.997 0 0 0 1.414,0a0.999,0.999 0 0 0 0,-1.414l-0.707,-0.707zm-30.405,-30.406a0.999,0.999 0 1 0 -1.414,1.414l0.707,0.707a0.997,0.997 0 0 0 1.414,0a0.999,0.999 0 0 0 0,-1.414l-0.707,-0.707z" id="svg_27"/>
   </g>
   <path stroke="null" fill="#424a60" d="m41.452834,31.674698l-8.337651,0a1.04221,1.04221 0 1 1 0,-2.08441l8.337651,0a1.04221,1.04221 0 1 1 0,2.08441zm-11.464272,-3.12662a1.04221,1.04221 0 0 1 -1.04221,-1.0422l0,-11.464282a1.04221,1.04221 0 1 1 2.08442,0l0,11.464282a1.04221,1.04221 0 0 1 -1.04221,1.0422z" id="svg_28"/>
   <path stroke="null" fill="#424a60" d="m29.988562,34.801318c-2.299103,0 -4.16882,-1.869718 -4.16882,-4.16882s1.869718,-4.168831 4.16882,-4.168831s4.168831,1.869718 4.168831,4.168831s-1.869718,4.16882 -4.168831,4.16882zm0,-6.253241c-1.149557,0 -2.08441,0.934864 -2.08441,2.08442s0.934854,2.08441 2.08441,2.08441s2.08441,-0.934864 2.08441,-2.08441s-0.934854,-2.08442 -2.08441,-2.08442z" id="svg_29"/>
   <path stroke="null" fill="#e7eced" d="m56.997346,2.418917a7.421554,7.421554 0 0 1 0,10.496058l-10.497106,-10.496058a7.42364,7.42364 0 0 1 10.497106,0zm-54.016529,0a7.421554,7.421554 0 0 0 0,10.496058l10.496068,-10.496058a7.421554,7.421554 0 0 0 -10.496068,0z" id="svg_30"/>
  </g>
 </g>
</svg>