<svg xmlns="http://www.w3.org/2000/svg" viewBox="0 0 208 69">
  <g fill="none" fill-rule="evenodd">
    <path fill="#000" fill-rule="nonzero" d="M190.900268,2.31330797e-15 L16.5267787,2.31330797e-15 C15.8911653,2.31330797e-15 15.2631787,2.31330797e-15 14.6292467,0.00345 C14.0985867,0.0069 13.572156,0.01692225 13.0364,0.0253575 C11.8724904,0.0389881112 10.7113179,0.140891548 9.56297333,0.33018225 C8.41624174,0.523593783 7.30543236,0.888229652 6.26811467,1.41175725 C5.23206565,1.9397137 4.28539803,2.62573899 3.46245467,3.44494575 C2.635191,4.26184882 1.94560285,5.20607825 1.42020667,6.241326 C0.893360419,7.27451323 0.52804353,8.38166856 0.336873333,9.524553 C0.143885631,10.665994 0.0400371931,11.8205979 0.02626,12.978003 C0.0101746667,13.506888 0.008476,14.0375325 0,14.5664865 L0,54.438585 C0.008476,54.9741975 0.0101746667,55.4930775 0.02626,56.0288625 C0.0400414179,57.1862102 0.143889858,58.3407565 0.336873333,59.48214 C0.527515652,60.6256926 0.89285414,61.7334835 1.42020667,62.7670575 C1.94536429,63.7989575 2.63504941,64.7393642 3.46245467,65.551725 C4.28227769,66.3745742 5.22955721,67.0610662 6.26811467,67.5849825 C7.30542448,68.1099113 8.4161141,68.4767175 9.56297333,68.6731125 C10.7115131,68.8608869 11.8725662,68.9628318 13.0364,68.9780925 C13.572156,68.9898225 14.0985867,68.99655 14.6292467,68.99655 C15.2631613,69 15.8912,69 16.5267787,69 L190.900268,69 C191.523228,69 192.156241,69 192.779201,68.99655 C193.307348,68.99655 193.849015,68.9898225 194.377161,68.9780925 C195.538795,68.9636434 196.697662,68.861692 197.843828,68.6731125 C198.994387,68.475335 200.109059,68.1086259 201.151375,67.5849825 C202.188995,67.0607629 203.135401,66.3742896 203.954521,65.551725 C204.779792,64.7361826 205.47095,63.7964638 206.002628,62.7670575 C206.526023,61.7327316 206.887884,60.6250292 207.075735,59.48214 C207.269027,58.3405999 207.37656,57.1863104 207.397441,56.0288625 C207.404201,55.4930775 207.404201,54.9741975 207.404201,54.438585 C207.417721,53.8118925 207.417721,53.18865 207.417721,52.55178 L207.417721,16.4498242 C207.417721,15.818112 207.417721,15.191454 207.404201,14.5664865 C207.404201,14.0375325 207.404201,13.506888 207.397441,12.977934 C207.376565,11.8204287 207.269031,10.6660815 207.075735,9.524484 C206.887361,8.38226076 206.525521,7.27519315 206.002628,6.241257 C204.932683,4.16621324 203.23606,2.47714381 201.151375,1.411602 C200.109055,0.889353731 198.994265,0.524814707 197.843828,0.330027 C196.69786,0.139902301 195.538872,0.0379633944 194.377161,0.025116 C193.849015,0.016698 193.307348,0.0065895 192.779201,0.00322575 C192.156241,-0.00022425 191.523228,-0.00022425 190.900268,-0.00022425 L190.900268,2.31330797e-15 Z"/>
    <path fill="#000" d="M14.6377053,67.490625 C14.1095933,67.490625 13.5942387,67.4838975 13.0702693,67.4721675 C11.9848244,67.4580928 10.9019164,67.3640532 9.83042667,67.19082 C8.83131652,67.0195761 7.86344736,66.7010312 6.958744,66.2456925 C6.06233629,65.7941266 5.24474039,65.2020207 4.53727733,64.4920575 C3.8195739,63.7904573 3.22205301,62.9767208 2.76839333,62.083095 C2.30973472,61.1836613 1.99231566,60.2195768 1.82719333,59.224425 C1.64887555,58.1551232 1.55239825,57.0738903 1.53859333,55.99005 C1.527604,55.6262475 1.51321733,54.4149525 1.51321733,54.4149525 L1.51321733,14.5664865 C1.51321733,14.5664865 1.52854,13.3738042 1.53868,13.023405 C1.5518981,11.9412815 1.64781439,10.8617266 1.82559867,9.79408425 C1.99102579,8.79620639 2.30869058,7.8293418 2.767596,6.92696175 C3.21958836,6.03395314 3.81379194,5.219609 4.527172,4.515498 C5.23975024,3.80469695 6.05996146,3.2095421 6.95789467,2.75173725 C7.86051875,2.29786147 8.82655877,1.98156364 9.82364933,1.81344075 C10.898658,1.63846734 11.9853255,1.54386825 13.0745333,1.53043725 L14.6385547,1.509375 L192.770708,1.509375 L194.353415,1.5312825 C195.432715,1.54404612 196.509511,1.63780126 197.574641,1.81175025 C198.581826,1.98198199 199.557934,2.3004868 200.470868,2.7567915 C202.269753,3.67940093 203.733472,5.13905609 204.656868,6.93117075 C205.108449,7.8273213 205.421214,8.78629915 205.584548,9.77555775 C205.764449,10.8519601 205.865135,11.9399986 205.885801,13.030995 C205.890828,13.519515 205.890828,14.04426 205.890828,14.5664865 C205.904521,15.2133615 205.904521,15.8290657 205.904521,16.4498242 L205.904521,52.55178 C205.904521,53.1784725 205.904521,53.789985 205.890828,54.4065 C205.890828,54.96747 205.890828,55.4813475 205.884068,56.0102325 C205.863849,57.0817605 205.764842,58.1503783 205.587841,59.20752 C205.426104,60.2098505 205.110413,61.1814602 204.651841,62.08827 C204.194975,62.9721965 203.600885,63.7788842 202.891468,64.4786025 C202.183368,65.192381 201.36433,65.7879512 200.465841,66.242415 C199.555436,66.7012541 198.580765,67.020977 197.574641,67.19082 C196.503233,67.3649777 195.420221,67.4590233 194.334695,67.4721675 C193.827001,67.4838975 193.295388,67.490625 192.779201,67.490625 L190.900268,67.494075 L14.6377053,67.490625 Z"/>
    <path fill="#FFF" fill-rule="nonzero" d="M43.3276307 34.3091288C43.3313389 37.75212 45.4031814 40.8592978 48.589528 42.2004863 47.9767257 44.1816294 47.0530092 46.0538835 45.8525947 47.7478965 44.240456 50.1478545 42.550196 52.4925263 39.8673947 52.5358583 37.2606 52.595733 36.384556 51.0091298 33.39466 51.0091298 30.3767707 51.0091298 29.4430067 52.4925263 26.9428467 52.595733 24.387896 52.6899008 22.4353133 50.034246 20.764588 47.6567993 17.425304 42.801597 14.8251133 33.9740993 18.3110373 27.9676493 19.9480146 25.0401816 23.0087505 23.1825252 26.373412 23.0743418 28.930668 23.021988 31.3054387 24.79308 32.8776933 24.79308 34.4201347 24.79308 37.3544773 22.6744005 40.3812933 22.990593 43.2582619 23.0801732 45.9243554 24.5145719 47.5753027 26.861079 44.9701374 28.4550064 43.3670297 31.265964 43.3276307 34.3091288zM38.403924 19.7974972C36.9847679 21.5541082 34.8344504 22.5659141 32.5697147 22.542714 32.4256844 20.3401916 33.1673073 18.1710225 34.6312373 16.5129765 36.1137651 14.8324716 38.1780768 13.7695278 40.4128573 13.535937 40.5873619 15.8037516 39.866703 18.0499432 38.403924 19.7974972zM73.3230853 46.8158962L65.1185253 46.8158962 63.1482107 52.6057725 59.6730853 52.6057725 67.444312 31.1847225 71.0548453 31.1847225 78.826072 52.6057725 75.2917013 52.6057725 73.3230853 46.8158962zM65.9682747 44.1441645L72.4717413 44.1441645 69.2657333 34.7476237 69.1759467 34.7476237 65.9682747 44.1441645zM95.60928 44.7977843C95.60928 49.6510373 92.9991227 52.7691645 89.060192 52.7691645 87.0241931 52.8751565 85.1063935 51.8138779 84.1225667 50.0367645L84.0480333 50.0367645 84.0480333 57.77232 80.8268067 57.77232 80.8268067 36.9881055 83.9447787 36.9881055 83.9447787 39.585714 84.004024 39.585714C85.0315584 37.8197417 86.9514261 36.75892 89.0008947 36.8246963 92.9838867 36.8247135 95.60928 39.9580035 95.60928 44.7977843zM92.298336 44.7977843C92.298336 41.6358593 90.6564013 39.557079 88.1511973 39.557079 85.6900027 39.557079 84.0345307 41.6796398 84.0345307 44.7977843 84.0345307 47.9445638 85.6900027 50.0519618 88.1511973 50.0519618 90.6564187 50.0519618 92.2982667 47.9883615 92.2982667 44.7977843L92.298336 44.7977843zM112.882519 44.7977843C112.882519 49.6510373 110.271512 52.7691645 106.332581 52.7691645 104.296582 52.8751565 102.378783 51.8138779 101.394956 50.0367645L101.320423 50.0367645 101.320423 57.77232 98.099196 57.77232 98.099196 36.9881055 101.217168 36.9881055 101.217168 39.585714 101.276413 39.585714C102.303948 37.8197417 104.223815 36.75892 106.273284 36.8246963 110.256293 36.8247135 112.882519 39.9580035 112.882519 44.7977843zM109.570743 44.7977843C109.570743 41.6358593 107.928808 39.557079 105.423604 39.557079 102.962409 39.557079 101.306937 41.6796398 101.306937 44.7977843 101.306937 47.9445638 102.962409 50.0519618 105.423604 50.0519618 107.928808 50.0519618 109.570743 47.9883615 109.570743 44.7977843zM124.296449 46.6373242C124.535129 48.7615755 126.608716 50.1563242 129.442283 50.1563242 132.157393 50.1563242 134.110773 48.7615065 134.110773 46.8461355 134.110773 45.1834597 132.932644 44.1879105 130.143069 43.5056385L127.353495 42.836856C123.401027 41.8867605 121.56612 40.0472032 121.56612 37.0621425 121.56612 33.366192 124.802583 30.827544 129.396592 30.827544 133.946592 30.827544 137.064564 33.366192 137.169517 37.0621425L133.917784 37.0621425C133.723131 34.924419 131.947469 33.63405 129.352548 33.63405 126.757627 33.63405 124.981983 34.939599 124.981983 36.83979 124.981983 38.3542192 126.116103 39.2453542 128.890441 39.92754L131.261919 40.5070365C135.678192 41.546418 137.5114 43.3118865 137.5114 46.445142 137.5114 50.452731 134.305409 52.962744 129.203533 52.962744 124.430089 52.962744 121.207181 50.5116915 120.998973 46.637169L124.296449 46.6373242zM144.466764 33.292155L144.466764 36.9881055 147.451009 36.9881055 147.451009 39.5267535 144.466764 39.5267535 144.466764 48.1365907C144.466764 49.4741385 145.064296 50.0974327 146.376135 50.0974327 146.730413 50.0912848 147.084118 50.0665253 147.435773 50.0232577L147.435773 52.546743C146.845969 52.6564177 146.246483 52.706089 145.646575 52.6949895 142.469375 52.6949895 141.230301 51.5073615 141.230301 48.478503L141.230301 39.5267535 138.948541 39.5267535 138.948541 36.9881055 141.230267 36.9881055 141.230267 33.292155 144.466764 33.292155zM149.1776 44.7977843C149.1776 39.8838975 152.085665 36.7960785 156.620447 36.7960785 161.170447 36.7960785 164.064975 39.8838285 164.064975 44.7977843 164.064975 49.7251605 161.185683 52.79949 156.620447 52.79949 152.056875 52.79949 149.1776 49.7251433 149.1776 44.7977843zM160.782804 44.7977843C160.782804 41.4269618 159.230587 39.4374848 156.620429 39.4374848 154.010272 39.4374848 152.458055 41.4421245 152.458055 44.7977843 152.458055 48.182079 154.010272 50.1564105 156.620429 50.1564105 159.230587 50.1564105 160.782787 48.182079 160.782787 44.7977843L160.782804 44.7977843zM166.720805 36.9881055L169.793069 36.9881055 169.793069 39.6463305 169.867603 39.6463305C170.296041 37.9351105 171.871566 36.7573894 173.642335 36.824679 174.013552 36.8233891 174.383746 36.86351 174.745983 36.9442905L174.745983 39.9428235C174.277343 39.8003097 173.788471 39.734877 173.298649 39.749106 172.35164 39.7108721 171.435144 40.0864724 170.789808 40.7772853 170.144471 41.4680982 169.834767 42.405107 169.942015 43.342281L169.942015 52.605738 166.720788 52.605738 166.720805 36.9881055zM189.597755 48.0186697C189.164421 50.8537935 186.390065 52.7994727 182.840459 52.7994727 178.275223 52.7994727 175.441639 49.7554515 175.441639 44.8718902 175.441639 39.9731662 178.290459 36.7960612 182.705051 36.7960612 187.046843 36.7960612 189.777189 39.7642687 189.777189 44.4996007L189.777189 45.5979427 178.693337 45.5979427 178.693337 45.7916602C178.589853 46.9543648 178.993276 48.105281 179.800989 48.9516531 180.608702 49.7980252 181.742856 50.2582774 182.914957 50.2153365 184.478151 50.3610983 185.951936 49.4677865 186.539045 48.0186525L189.597755 48.0186697zM178.708543 43.3574782L186.554264 43.357461C186.612721 42.3126932 186.230575 41.2910198 185.499895 40.5385894 184.769214 39.786159 183.756249 39.3711937 182.705051 39.3936697 181.645536 39.3873773 180.627392 39.8025372 179.876919 40.5468723 179.126446 41.2912075 178.705828 42.3030425 178.708543 43.3574782zM65.565396 15.060975C66.9329034 14.9633127 68.2723466 15.4810943 69.2150529 16.4718039 70.1577592 17.4625135 70.6043622 18.8217248 70.4319373 20.175324 70.4319373 23.4636052 68.646136 25.353774 65.565396 25.353774L61.8295947 25.353774 61.8295947 15.060975 65.565396 15.060975zM63.4359613 23.89815L65.3859613 23.89815C66.3632527 23.956286 67.3148433 23.5730893 67.9765121 22.8549593 68.6381809 22.1368294 68.9394847 21.1602204 68.7967627 20.1963 68.929101 19.2363798 68.6234581 18.2678297 67.9634299 17.5555561 67.3034017 16.8432825 66.3580592 16.4618239 65.3859613 16.5155122L63.4359613 16.5155122 63.4359613 23.89815zM72.246512 21.4664865C72.1126764 20.0742132 72.783505 18.7267931 73.9776543 17.9893305 75.1718035 17.2518678 76.6828085 17.2518678 77.8769577 17.9893305 79.071107 18.7267931 79.7419356 20.0742132 79.6081 21.4664865 79.744482 22.8602559 79.0742657 24.2102894 77.8790576 24.9493396 76.6838495 25.6883899 75.1707625 25.6883899 73.9755544 24.9493396 72.7803463 24.2102894 72.11013 22.8602559 72.246512 21.4664865zM78.023712 21.4664865C78.023712 19.7827658 77.26368 18.7981358 75.9298453 18.7981358 74.5909147 18.7981358 73.837712 19.7827658 73.837712 21.4665038 73.837712 23.163714 74.5909667 24.140754 75.9298453 24.140754 77.2637147 24.1407368 78.0237293 23.156952 78.0237293 21.4664865L78.023712 21.4664865zM89.3936507 25.3536188L87.7957427 25.3536188 86.1825987 19.6328115 86.060728 19.6328115 84.454344 25.3536188 82.8716547 25.3536188 80.720224 17.5860645 82.2825987 17.5860645 83.6807747 23.5131645 83.7958853 23.5131645 85.4005707 17.5860645 86.8783067 17.5860645 88.482992 23.5131645 88.6048627 23.5131645 89.9962613 17.5860645 91.5366227 17.5860645 89.3936507 25.3536188zM93.346136 17.5860645L94.8289333 17.5860645 94.8289333 18.8200088 94.944044 18.8200088C95.3443311 17.9114994 96.2796863 17.3557554 97.2732107 17.4361275 98.0424931 17.3785673 98.7963355 17.6722626 99.3218907 18.2342886 99.8474459 18.7963146 100.087681 19.565681 99.9747667 20.3251575L99.9747667 25.3535325 98.4344053 25.3535325 98.4344053 20.7101085C98.4344053 19.4618468 97.8893587 18.841071 96.75016 18.841071 96.2283674 18.816885 95.7219816 19.0206824 95.3637613 19.399034 95.005541 19.7773855 94.8312127 20.2925567 94.88648 20.8094858L94.88648 25.3536188 93.3461187 25.3536188 93.346136 17.5860645zM102.429201 14.553825L103.969563 14.553825 103.969563 25.3536015 102.429201 25.3536015 102.429201 14.553825zM106.110836 21.4664865C105.977103 20.0741221 106.648038 18.7266679 107.842275 17.9891939 109.036513 17.2517199 110.547596 17.2517199 111.741834 17.9891939 112.936072 18.7266679 113.607006 20.0741221 113.473273 21.4664865 113.609482 22.8603058 112.939143 24.2103012 111.743876 24.9493188 110.548608 25.6883365 109.035501 25.6883365 107.840234 24.9493188 106.644966 24.2103012 105.974627 22.8603058 106.110836 21.4664865zM111.888036 21.4664865C111.888036 19.7827658 111.128004 18.7981358 109.794169 18.7981358 108.455239 18.7981358 107.702036 19.7827658 107.702036 21.4665038 107.702036 23.163714 108.455291 24.140754 109.794169 24.140754 111.128021 24.1407368 111.888053 23.156952 111.888053 21.4664865L111.888036 21.4664865zM115.094893 23.156952C115.094893 21.7587532 116.140995 20.9526952 117.99788 20.838138L120.112079 20.7168532 120.112079 20.0463975C120.112079 19.2260047 119.567032 18.762756 118.514171 18.762756 117.654281 18.762756 117.058448 19.0769302 116.887472 19.6261012L115.396199 19.6261012C115.55362 18.2919172 116.814689 17.436162 118.585255 17.436162 120.542032 17.436162 121.64568 18.405612 121.64568 20.0463975L121.64568 25.353636 120.162865 25.353636 120.162865 24.2620387 120.040995 24.2620387C119.537372 25.0592067 118.641768 25.5251066 117.696592 25.4816137 117.034001 25.5502029 116.373177 25.3366459 115.877486 24.893738 115.381795 24.45083 115.097504 23.8199097 115.094893 23.156952zM120.112079 22.4932237L120.112079 21.8438302 118.206088 21.965115C117.131213 22.0367025 116.643713 22.400574 116.643713 23.0853472 116.643713 23.784438 117.253084 24.191262 118.091047 24.191262 118.587103 24.241235 119.082299 24.0887195 119.463275 23.7686294 119.844252 23.4485393 120.078385 22.9882833 120.112079 22.4932237zM123.670144 21.4664865C123.670144 19.0120702 124.937991 17.457207 126.909987 17.457207 127.905746 17.4115465 128.838368 17.9425407 129.303477 18.819957L129.418588 18.819957 129.418588 14.553825 130.958949 14.553825 130.958949 25.3536015 129.482912 25.3536015 129.482912 24.1263847 129.361041 24.1263847C128.860774 24.9965213 127.916663 25.5185399 126.910004 25.4816137 124.924453 25.4817 123.670144 23.9268022 123.670144 21.4664865zM125.261344 21.4664865C125.261344 23.1139995 126.041691 24.1053742 127.346769 24.1053742 128.645036 24.1053742 129.447413 23.0996992 129.447413 21.4732312 129.447413 19.8543532 128.636612 18.8343435 127.346769 18.8343435 126.050097 18.8343435 125.261292 19.8324457 125.261292 21.4664865L125.261344 21.4664865zM137.332 21.4664865C137.198164 20.0742132 137.868993 18.7267931 139.063142 17.9893305 140.257292 17.2518678 141.768296 17.2518678 142.962446 17.9893305 144.156595 18.7267931 144.827424 20.0742132 144.693588 21.4664865 144.82997 22.8602559 144.159754 24.2102894 142.964546 24.9493396 141.769338 25.6883899 140.25625 25.6883899 139.061042 24.9493396 137.865834 24.2102894 137.195618 22.8602559 137.332 21.4664865zM143.1092 21.4664865C143.1092 19.7827658 142.349168 18.7981358 141.015333 18.7981358 139.676403 18.7981358 138.9232 19.7827658 138.9232 21.4665038 138.9232 23.163714 139.676455 24.140754 141.015333 24.140754 142.349185 24.1407368 143.1092 23.156952 143.1092 21.4664865zM146.76038 17.5860645L148.243195 17.5860645 148.243195 18.8200088 148.358305 18.8200088C148.758592 17.9114994 149.693948 17.3557554 150.687472 17.4361275 151.456754 17.3785673 152.210597 17.6722626 152.736152 18.2342886 153.261707 18.7963146 153.501943 19.565681 153.389028 20.3251575L153.389028 25.3535325 151.848667 25.3535325 151.848667 20.7101085C151.848667 19.4618468 151.30362 18.841071 150.164421 18.841071 149.642629 18.816885 149.136243 19.0206824 148.778023 19.399034 148.419802 19.7773855 148.245474 20.2925567 148.300741 20.8094858L148.300741 25.3536188 146.76038 25.3536188 146.76038 17.5860645zM162.092944 15.6521843L162.092944 17.6214443 163.783967 17.6214443 163.783967 18.9126758 162.092944 18.9126758 162.092944 22.9067925C162.092944 23.7204405 162.4298 24.076722 163.196592 24.076722 163.392902 24.0760968 163.589014 24.0642842 163.783967 24.0413422L163.783967 25.318239C163.507343 25.367489 163.227074 25.3936906 162.946073 25.3965713 161.233055 25.3965713 160.550884 24.7968578 160.550884 23.2992818L160.550884 18.9126068 159.311828 18.9126068 159.311828 17.6213753 160.550884 17.6213753 160.550884 15.6521843 162.092944 15.6521843zM165.887991 14.553825L167.414815 14.553825 167.414815 18.8343262 167.536685 18.8343262C167.9562 17.9178658 168.907926 17.3614135 169.916552 17.4428722 170.681466 17.4014503 171.425104 17.7016114 171.944915 18.2615984 172.464726 18.8215854 172.706569 19.5830722 172.604571 20.338647L172.604571 25.3536187 171.062667 25.3536187 171.062667 20.7168187C171.062667 19.4761297 170.482 18.8477812 169.393657 18.8477812 168.857761 18.8040416 168.329788 18.9979269 167.950887 19.3776038 167.571986 19.7572807 167.380793 20.284034 167.428421 20.8170412L167.428421 25.3535842 165.88806 25.3535842 165.887991 14.553825zM181.586167 23.2563293C181.154232 24.7215089 179.729505 25.6681777 178.204139 25.5035385 177.163383 25.5308801 176.163158 25.101563 175.468849 24.3294952 174.774539 23.5574274 174.456336 22.5206615 174.598667 21.4942763 174.460117 20.4650386 174.777128 19.4266114 175.467571 18.648021 176.158014 17.8694306 177.15395 17.4272899 178.197361 17.4361448 180.369107 17.4361448 181.679264 18.9127448 181.679264 21.3518948L181.679264 21.8868 176.167801 21.8868 176.167801 21.972705C176.119029 22.5490967 176.316835 23.1192224 176.712572 23.5428702 177.108309 23.966518 177.665259 24.2043788 178.246449 24.197955 179.000054 24.2879908 179.733636 23.9159745 180.103352 23.2562775L181.586167 23.2563293zM176.167767 20.753061L180.110077 20.753061C180.149342 20.2259018 179.963088 19.7067537 179.597213 19.3235519 179.231339 18.9403501 178.71987 18.7287325 178.188851 18.7408485 177.650637 18.7341191 177.132502 18.9439866 176.75198 19.3228443 176.371459 19.701702 176.160804 20.2174377 176.167801 20.753061L176.167767 20.753061z"/>
  </g>
</svg>
