<svg xmlns="http://www.w3.org/2000/svg" width="512" height="512" viewBox="0 0 411.349 411.349">
    <path fill="#36bd9f" d="M62.269 215.264h325.08v27.083H62.269z" class="active-path" data-old_color="#36bd9f" data-original="#73D0F4"/>
    <path fill="#e7eced" d="M381.243 122.772l-16.156-68.974c-4.482-19.976-24.367-32.61-44.354-28.17L29.14 90.36C9.12 94.805-3.551 114.71.886 134.708l37.383 169.975v44.733c0 20.508 16.686 37.193 37.195 37.193h298.69c20.51 0 37.195-16.685 37.195-37.193V159.28c0-18.084-12.977-33.187-30.106-36.508zm-7.09 23.314c7.275 0 13.195 5.918 13.195 13.192v31.985H62.269v-31.985c0-7.274 5.92-13.192 13.195-13.192h298.689zm13.196 96.261H62.269v-27.083h325.08v27.083zm-349.08-83.068v33.672L24.321 129.53c-1.576-7.103 2.918-14.164 10.02-15.741l291.594-64.731c7.098-1.578 14.162 2.918 15.74 10.021l.031.134 14.728 62.872H75.464c-20.51.001-37.195 16.686-37.195 37.194zm349.08 190.136c0 7.275-5.92 13.193-13.195 13.193H75.464c-7.275 0-13.195-5.919-13.195-13.193V303.25v-36.904h325.08v83.069z" data-old_color="#36BD9F" data-original="#3D6889"/>
</svg>
