<svg width="612.5" height="402.011" xmlns="http://www.w3.org/2000/svg">
 <g>
  <title>background</title>
  <rect x="-1" y="-1" width="614.5" height="404.011" id="canvas_background" fill="none"/>
 </g>

 <g>
  <title>Layer 1</title>
  <g id="svg_1">
   <g id="Shape_17">
    <g id="svg_2">
     <path d="m612,51.37663c0,-13.065 -5.16,-24.885 -13.393,-33.897c-0.137,-0.179 -0.168,-0.39 -0.316,-0.57c-0.137,-0.158 -0.327,-0.222 -0.475,-0.369c-9.361,-9.794 -22.553,-15.988 -37.243,-15.988l-509.136,0c-14.69,0 -27.882,6.194 -37.264,15.988c-0.137,0.147 -0.338,0.211 -0.475,0.38c-0.148,0.169 -0.179,0.39 -0.316,0.57c-8.221,9.012 -13.382,20.821 -13.382,33.886l0,299.546c0,13.382 5.372,25.486 13.962,34.573c0.169,0.189 0.222,0.422 0.412,0.602c0.063,0.063 0.137,0.073 0.201,0.137c9.361,9.541 22.394,15.514 36.863,15.514l509.136,0c14.469,0 27.513,-5.983 36.863,-15.523c0.063,-0.054 0.137,-0.074 0.2,-0.127c0.18,-0.169 0.232,-0.401 0.401,-0.581c8.601,-9.086 13.973,-21.201 13.973,-34.594l0,-299.547l-0.011,0zm-200.313,133.943l176.368,-146.238c1.73,3.757 2.754,7.904 2.754,12.294l0,299.546c0,3.969 -0.823,7.736 -2.248,11.208l-176.874,-176.81zm148.886,-163.82c4.443,0 8.633,1.013 12.442,2.723l-267.01,221.378l-267.01,-221.378c3.81,-1.709 8,-2.723 12.442,-2.723l509.136,0zm-537.123,340.621c-1.425,-3.461 -2.248,-7.239 -2.248,-11.208l0,-299.536c0,-4.39 1.024,-8.538 2.754,-12.294l176.368,146.238l-176.874,176.8zm27.987,18.669c-4.896,0 -9.456,-1.267 -13.55,-3.313l178.731,-178.658l82.58,68.471c1.963,1.636 4.39,2.459 6.807,2.459c2.417,0 4.844,-0.823 6.807,-2.459l82.58,-68.471l178.731,178.658c-4.095,2.047 -8.653,3.313 -13.551,3.313l-509.135,0z" id="svg_3" fill="#36bd9f"/>
    </g>
   </g>
  </g>
  <g id="svg_4"/>
  <g id="svg_5"/>
  <g id="svg_6"/>
  <g id="svg_7"/>
  <g id="svg_8"/>
  <g id="svg_9"/>
  <g id="svg_10"/>
  <g id="svg_11"/>
  <g id="svg_12"/>
  <g id="svg_13"/>
  <g id="svg_14"/>
  <g id="svg_15"/>
  <g id="svg_16"/>
  <g id="svg_17"/>
  <g id="svg_18"/>
  <polyline fill="none" stroke-width="1.5" points="36.585445404052734,131.282958984375 36.585445404052734,131.282958984375 " id="svg_19" stroke-linecap="round" stroke="#000"/>
 </g>
</svg>