<?xml version="1.0" encoding="utf-8"?>
<!-- Generator: Adobe Illustrator 17.0.0, SVG Export Plug-In . SVG Version: 6.00 Build 0)  -->
<!DOCTYPE svg PUBLIC "-//W3C//DTD SVG 1.1//EN" "http://www.w3.org/Graphics/SVG/1.1/DTD/svg11.dtd">
<svg version="1.1" id="Layer_1" xmlns="http://www.w3.org/2000/svg" xmlns:xlink="http://www.w3.org/1999/xlink" x="0px" y="0px"
	 width="434.662px" height="76.643px" viewBox="0 0 434.662 76.643" enable-background="new 0 0 434.662 76.643"
	 xml:space="preserve">
<g>
	<g>
		
			<rect x="16.3" y="53.756" transform="matrix(-0.9811 -0.1933 0.1933 -0.9811 32.8494 118.2489)" fill="#FFFFFF" width="11.787" height="7.532"/>
		<path fill="#FFFFFF" d="M12.999,73.702c-0.012,0.062-0.028,0.122-0.045,0.181l13.211-7.318l-11.32-2.23L12.999,73.702z"/>
		
			<rect x="18.594" y="42.11" transform="matrix(-0.9811 -0.1933 0.1933 -0.9811 39.6449 95.6201)" fill="#FFFFFF" width="11.787" height="7.532"/>
		<path fill="#FFFFFF" d="M46.86,10.691L7.694,10.681v0.002h-0.25c-1.789,0-3.239-1.45-3.239-3.239c0-1.789,1.45-3.24,3.239-3.24
			h34.899v6.485l3.519,0.001V2.099C45.862,0.94,44.922,0,43.763,0H13.769h-0.873H7.444C3.333,0,0,3.333,0,7.444v48.528
			c0,4.112,3.333,7.444,7.444,7.444l0.25-0.002h2.911l8.885-45.1c0.231-1.175,1.372-1.941,2.547-1.709
			c1.175,0.231,1.94,1.372,1.709,2.548l-1.179,5.985l11.564,2.278l1.179-5.986c0.231-1.175,1.372-1.94,2.547-1.708
			c1.175,0.231,1.94,1.372,1.708,2.547L28.854,76.643l13.01-13.228l4.996,0.001c1.159,0,2.099-0.94,2.099-2.099V12.79
			C48.959,11.631,48.019,10.691,46.86,10.691z"/>
		
			<rect x="20.889" y="30.464" transform="matrix(0.9811 0.1933 -0.1933 0.9811 7.1212 -4.5311)" fill="#FFFFFF" width="11.787" height="7.532"/>
	</g>
</g>
<g>
	<path fill="#FFFFFF" d="M66.373,18.538h7.629l8.457,13.604l8.457-13.604h7.629V50.71h-7.032V29.706l-9.054,13.742h-0.184
		l-8.962-13.604V50.71h-6.939V18.538z"/>
	<path fill="#FFFFFF" d="M106.36,56.501l2.344-5.056c0.919,0.552,2.068,0.965,2.987,0.965c1.195,0,1.838-0.367,2.436-1.608
		l-9.651-24.727h7.399l5.607,16.775l5.377-16.775h7.261l-9.467,25.232c-1.885,5.01-3.907,6.894-8.089,6.894
		C110.037,58.201,108.153,57.557,106.36,56.501z"/>
	<path fill="#FFFFFF" d="M135.407,26.075h6.986v3.539c1.7-2.298,4.044-3.998,7.675-3.998c5.745,0,11.214,4.504,11.214,12.822
		c0,8.227-5.377,12.731-11.214,12.731c-3.723,0-6.021-1.701-7.675-3.677v10.57h-6.986V26.075z M154.297,38.346
		c0-4.09-2.758-6.802-6.021-6.802c-3.263,0-5.975,2.712-5.975,6.894c0,4.091,2.712,6.803,5.975,6.803
		C151.539,45.241,154.297,42.575,154.297,38.346z"/>
	<path fill="#FFFFFF" d="M167.58,26.075h6.986v4.964c1.424-3.4,3.723-5.606,7.859-5.423v7.308h-0.368
		c-4.642,0-7.491,2.804-7.491,8.687v9.1h-6.986V26.075z"/>
	<path fill="#FFFFFF" d="M186.057,38.438c0-7.077,5.699-12.822,13.375-12.822c7.629,0,13.282,5.653,13.282,12.822
		c0,7.078-5.699,12.823-13.374,12.823C191.711,51.261,186.057,45.608,186.057,38.438z M205.82,38.438c0-3.631-2.62-6.802-6.48-6.802
		c-3.999,0-6.388,3.079-6.388,6.802c0,3.631,2.62,6.803,6.48,6.803C203.43,45.241,205.82,42.161,205.82,38.438z"/>
	<path fill="#FFFFFF" d="M215.289,57.925v-5.47c0.551,0.092,0.965,0.139,1.471,0.139c1.471,0,2.481-0.781,2.481-2.85v-23.67h6.985
		v24.221c0,5.424-2.757,7.905-7.904,7.905C217.035,58.201,216.254,58.109,215.289,57.925z M219.057,17.159h7.354v6.205h-7.354
		V17.159z"/>
	<path fill="#FFFFFF" d="M232.754,38.438c0-7.031,5.01-12.822,12.179-12.822c8.227,0,11.996,6.389,11.996,13.374
		c0,0.552-0.047,1.195-0.093,1.839h-17.143c0.689,3.171,2.896,4.825,6.021,4.825c2.344,0,4.045-0.735,5.975-2.527l3.999,3.538
		c-2.298,2.85-5.607,4.597-10.065,4.597C238.222,51.261,232.754,46.068,232.754,38.438z M250.126,36.463
		c-0.413-3.126-2.252-5.239-5.193-5.239c-2.896,0-4.779,2.067-5.331,5.239H250.126z"/>
	<path fill="#FFFFFF" d="M262.077,38.438c0-7.031,5.377-12.822,12.914-12.822c4.643,0,7.491,1.746,9.789,4.32l-4.09,4.136
		c-1.517-1.425-2.987-2.436-5.745-2.436c-3.493,0-5.975,3.079-5.975,6.802c0,3.769,2.436,6.803,6.251,6.803
		c2.344,0,3.952-1.012,5.652-2.62l4.091,4.137c-2.39,2.619-5.147,4.504-10.065,4.504C267.5,51.261,262.077,45.562,262.077,38.438z"
		/>
	<path fill="#FFFFFF" d="M291.814,43.723V32.05h-2.941v-5.976h2.941v-6.296h6.985v6.296h5.791v5.976H298.8v10.524
		c0,1.608,0.689,2.39,2.252,2.39c1.287,0,2.437-0.321,3.447-0.873v5.607c-1.471,0.873-3.171,1.425-5.515,1.425
		C294.71,51.124,291.814,49.423,291.814,43.723z"/>
	<path fill="#FFFFFF" d="M317.46,38.209l-8.318-12.134h7.491l4.596,7.17l4.643-7.17h7.308l-8.319,11.996l8.687,12.639h-7.491
		l-4.964-7.675l-4.964,7.675h-7.308L317.46,38.209z"/>
	<path fill="#FFFFFF" d="M338.879,26.075h6.986v3.539c1.7-2.298,4.044-3.998,7.675-3.998c5.745,0,11.214,4.504,11.214,12.822
		c0,8.227-5.377,12.731-11.214,12.731c-3.723,0-6.021-1.701-7.675-3.677v10.57h-6.986V26.075z M357.768,38.346
		c0-4.09-2.758-6.802-6.021-6.802c-3.264,0-5.975,2.712-5.975,6.894c0,4.091,2.711,6.803,5.975,6.803
		C355.01,45.241,357.768,42.575,357.768,38.346z"/>
	<path fill="#FFFFFF" d="M369.857,38.438c0-7.031,5.009-12.822,12.179-12.822c8.227,0,11.996,6.389,11.996,13.374
		c0,0.552-0.047,1.195-0.093,1.839h-17.143c0.689,3.171,2.896,4.825,6.021,4.825c2.344,0,4.045-0.735,5.975-2.527l3.999,3.538
		c-2.298,2.85-5.607,4.597-10.065,4.597C375.326,51.261,369.857,46.068,369.857,38.438z M387.229,36.463
		c-0.413-3.126-2.252-5.239-5.193-5.239c-2.896,0-4.779,2.067-5.331,5.239H387.229z"/>
	<path fill="#FFFFFF" d="M400.375,26.075h6.986v4.964c1.425-3.4,3.723-5.606,7.858-5.423v7.308h-0.367
		c-4.642,0-7.491,2.804-7.491,8.687v9.1h-6.986V26.075z"/>
	<path fill="#FFFFFF" d="M421.885,43.723V32.05h-2.941v-5.976h2.941v-6.296h6.985v6.296h5.791v5.976h-5.791v10.524
		c0,1.608,0.689,2.39,2.252,2.39c1.287,0,2.437-0.321,3.447-0.873v5.607c-1.471,0.873-3.171,1.425-5.515,1.425
		C424.781,51.124,421.885,49.423,421.885,43.723z"/>
</g>
</svg>
