<svg width="304.5" height="472.811" xmlns="http://www.w3.org/2000/svg">
 <g>
  <title>background</title>
  <rect x="-1" y="-1" width="306.5" height="474.811" id="canvas_background" fill="none"/>
 </g>

 <g>
  <title>Layer 1</title>
  <g id="svg_1">
   <path d="m274.75,-1l-244.689,0c-16.506,0 -29.933,13.428 -29.933,29.934l0,412.944c0,16.505 13.428,29.934 29.934,29.934l244.688,0c16.506,0 29.934,-13.428 29.934,-29.934l0,-412.944c-0.001,-16.506 -13.428,-29.934 -29.934,-29.934zm-259.622,75.236l274.556,0l0,312.687l-274.556,0l0,-312.687zm14.933,-60.236l244.689,0c8.234,0 14.934,6.699 14.934,14.934l0,35.302l-274.556,0l0,-35.302c0,-8.235 6.699,-14.934 14.933,-14.934zm244.689,442.811l-244.689,0c-8.234,0 -14.934,-6.699 -14.934,-14.934l0,-44.955l274.556,0l0,44.955c0,8.235 -6.699,14.934 -14.933,14.934z" fill="#36bd9f" id="svg_2"/>
   <path d="m152.406,405.552c-13.545,0 -24.564,11.02 -24.564,24.565s11.02,24.564 24.564,24.564s24.564,-11.02 24.564,-24.564s-11.019,-24.565 -24.564,-24.565zm0,39.129c-8.031,0 -14.564,-6.534 -14.564,-14.564c0,-8.031 6.533,-14.565 14.564,-14.565s14.564,6.534 14.564,14.565c0,8.03 -6.533,14.564 -14.564,14.564z" fill="#36bd9f" id="svg_3"/>
   <path d="m118.406,48.645l68,0c2.762,0 5,-2.239 5,-5s-2.238,-5 -5,-5l-68,0c-2.762,0 -5,2.239 -5,5s2.238,5 5,5z" fill="#36bd9f" id="svg_4"/>
   <path d="m100.409,48.645c1.31,0 2.6,-0.53 3.53,-1.46c0.93,-0.94 1.47,-2.22 1.47,-3.54s-0.54,-2.6 -1.47,-3.54c-0.931,-0.93 -2.221,-1.46 -3.53,-1.46c-1.32,0 -2.601,0.53 -3.54,1.46c-0.93,0.93 -1.46,2.22 -1.46,3.54s0.53,2.6 1.46,3.54c0.93,0.93 2.22,1.46 3.54,1.46z" fill="#36bd9f" id="svg_5"/>
  </g>
 </g>
</svg>