<svg width="58.064" height="58.064" xmlns="http://www.w3.org/2000/svg">

 <g>
  <title>background</title>
  <rect fill="none" id="canvas_background" height="402" width="582" y="-1" x="-1"/>
 </g>
 <g>
  <title>Layer 1</title>
  <g stroke="null" id="svg_13">
   <path stroke="null" id="svg_7" d="m31.566668,14.233065c2.889055,-1.370016 4.442311,-4.559818 3.739744,-7.679273c-0.702117,-3.119455 -3.472427,-5.33532 -6.67022,-5.33532c-3.19723,0 -5.967653,2.215865 -6.670107,5.33532c-0.702229,3.119455 0.851139,6.309257 3.740195,7.679273l5.860388,0zm-5.860388,0" fill="#36bd9f"/>
   <path stroke="null" id="svg_8" class="active-path" d="m20.822529,16.400644a0.977538,0.977538 0 0 1 -0.712359,-0.307837c-4.057149,-4.294639 -4.27528,-10.94021 -0.508747,-15.491924c0.219482,-0.278348 0.572566,-0.416453 0.922499,-0.360175s0.6419,0.297707 0.762896,0.630982a0.976075,0.976075 0 0 1 -0.180313,0.973374c-3.139715,3.793433 -2.955913,9.332815 0.427708,12.91003a0.97675,0.97675 0 0 1 0.185153,1.056889a0.977313,0.977313 0 0 1 -0.896836,0.588661zm0,0m17.37429,-2.480257a0.975512,0.975512 0 0 1 -0.832793,-0.467327a0.97675,0.97675 0 0 1 -0.035567,-0.954464c1.779828,-3.46376 1.322518,-7.655074 -1.162466,-10.653645a0.977088,0.977088 0 0 1 -0.180313,-0.973374a0.977425,0.977425 0 0 1 0.763346,-0.630982c0.349933,-0.056277 0.703017,0.081827 0.922386,0.360175c2.982251,3.599501 3.530955,8.630136 1.395454,12.788471a0.97585,0.97585 0 0 1 -0.870048,0.531258l0,-0.000113zm-17.37429,2.480257" fill="#2cac8f"/>
   <path stroke="null" id="svg_9" d="m49.148058,27.761133l0,15.461759s0,5.264636 -3.330495,8.312394a1.870885,1.870885 0 0 0 -0.576393,1.386675l0,2.998459c-0.003152,1.077712 -0.875789,1.950461 -1.9535,1.953951l-15.62789,0c-1.077712,-0.003489 -1.950349,-0.876239 -1.9535,-1.953951l0,-0.361301a5.808613,5.808613 0 0 0 -1.748538,-4.160587c-1.885292,-1.836443 -4.795958,-5.010938 -6.065576,-8.17564c-1.9535,-4.883751 -5.860388,-11.721002 -7.813776,-13.674502c-1.9535,-1.953388 0,-3.906776 1.953388,-3.906776s5.860276,3.906776 7.813776,6.837139a14.776076,14.776076 0 0 0 2.168367,2.588309a1.945734,1.945734 0 0 0 3.174494,-0.820412a11.698941,11.698941 0 0 0 0.517864,-3.721285l0,-22.465254a2.898848,2.898848 0 0 1 1.9535,-2.754553a2.712119,2.712119 0 0 1 0.976412,-0.175811c1.618537,0 2.930476,1.311938 2.930476,2.930363l0,11.721115a2.89851,2.89851 0 0 1 1.953388,-2.754553a2.706829,2.706829 0 0 1 0.976975,-0.175811c1.617975,0 2.929913,1.311938 2.929913,2.930363l0,2.929913c0,-0.776853 0.309526,-1.522078 0.859581,-2.070445a2.77031,2.77031 0 0 1 1.093807,-0.683658a2.706829,2.706829 0 0 1 0.976975,-0.175811c1.618537,0 2.930363,1.311938 2.930363,2.929913l0,4.883751a2.922147,2.922147 0 0 1 0.859581,-2.070332a2.773124,2.773124 0 0 1 1.09392,-0.684108a2.833003,2.833003 0 0 1 1.191505,-0.165793c1.569126,0.167594 2.74915,1.508571 2.715383,3.086476zm0,0" fill="#e7eced"/>
   <g stroke="null" transform="matrix(0.11255475492229812,0,0,0.11255475492229812,21.026130615925148,-43.170010157395) " id="svg_10" fill="#cbb292">
    <path stroke="null" id="svg_11" d="m67.612086,429.122329a24.096,24.096 0 0 0 -8.675,1.562a25.755,25.755 0 0 0 -17.356,24.473l0,199.594a103.94,103.94 0 0 1 -4.601,33.062a17.613,17.613 0 0 1 -7.809,9.547a17.264,17.264 0 0 0 14.867,1.254a17.26,17.26 0 0 0 10.297,-10.8a103.94,103.94 0 0 0 4.602,-33.063l0,-199.594a25.755,25.755 0 0 1 17.355,-24.473a24.132,24.132 0 0 0 -8.68,-1.562zm0,0m43.392,105.699a25.752,25.752 0 0 0 -17.356,24.473l0,78.101c0,4.793 3.886,8.676 8.68,8.676a8.676,8.676 0 0 0 8.675,-8.676l0,-78.1a25.757,25.757 0 0 1 17.356,-24.473a24.893,24.893 0 0 0 -17.356,0l0.001,-0.001zm-43.392,-105.699m95.457,131.734c-3.671,1.23 -7,3.313 -9.718,6.074a25.978,25.978 0 0 0 -7.637,18.395l0,52.07c0,4.793 3.887,8.676 8.68,8.676a8.674,8.674 0 0 0 8.675,-8.676l0,-52.07a25.759,25.759 0 0 1 17.36,-24.469a24.904,24.904 0 0 0 -17.36,0zm-95.457,-131.734m156.204,173.563c-2.961,-0.02 -5.907,0.507 -8.676,1.558a24.638,24.638 0 0 0 -9.719,6.078a25.962,25.962 0 0 0 -7.637,18.395l0,17.355c0,4.793 3.883,8.68 8.676,8.68a8.68,8.68 0 0 0 8.68,-8.68l0,-17.355a25.759,25.759 0 0 1 17.355,-24.473a24.045,24.045 0 0 0 -8.68,-1.559l0.001,0.001zm-156.204,-173.563" fill="#d8dcdd"/>
   </g>
   <path stroke="null" id="svg_12" d="m45.24117,34.432254a0.976975,0.976975 0 0 0 -0.976975,0.976975l0,5.860276c0,0.539475 0.4375,0.976975 0.976975,0.976975s0.976525,-0.4375 0.976525,-0.976975l0,-5.860388c0,-0.539475 -0.43705,-0.976975 -0.976525,-0.976975l0,0.000113zm0,-0.000113m0.024087,9.781458a1.020759,1.020759 0 0 0 -1.001062,0.940395a2.149458,2.149458 0 0 1 -0.690298,1.285488a0.976525,0.976525 0 0 0 -0.266417,0.949737a0.976525,0.976525 0 0 0 1.647464,0.43131a3.964178,3.964178 0 0 0 1.262752,-2.644136a0.964594,0.964594 0 0 0 -0.952326,-0.962906l-0.000113,0.000113zm-0.024087,-9.781458m-14.651478,18.558478l-0.976525,0c-0.539475,0 -0.976975,0.436938 -0.976975,0.976412a0.976975,0.976975 0 0 0 0.976975,0.976975l0.976525,0a0.976975,0.976975 0 0 0 0.976975,-0.976975c0,-0.539475 -0.4375,-0.976412 -0.976975,-0.976412zm14.651478,-18.558478m-3.906888,18.558478l-6.837251,0c-0.539475,0 -0.976975,0.436938 -0.976975,0.976412a0.976975,0.976975 0 0 0 0.976975,0.976975l6.837251,0c0.539475,0 0.976525,-0.4375 0.976525,-0.976975a0.9763,0.9763 0 0 0 -0.976525,-0.976412zm3.906888,-18.558478" fill="#dbdfe0"/>
  </g>
 </g>
</svg>